<svg xmlns="http://www.w3.org/2000/svg" width="96" height="96" viewBox="0 0 96 96" role="img" aria-label="Study mark logo">
  <defs>
    <linearGradient id="markBg" x1="18" y1="14" x2="78" y2="82" gradientUnits="userSpaceOnUse">
      <stop stop-color="#083B43"/>
      <stop offset="1" stop-color="#0B1F24"/>
    </linearGradient>
    <linearGradient id="bookGold" x1="23" y1="34" x2="73" y2="70" gradientUnits="userSpaceOnUse">
      <stop stop-color="#FFD166"/>
      <stop offset="1" stop-color="#F2B441"/>
    </linearGradient>
  </defs>
  <rect x="8" y="8" width="80" height="80" rx="24" fill="url(#markBg)"/>
  <path d="M27 38c0-3 2.4-5.4 5.4-5.4H45c3 0 5.5 2.4 5.5 5.4v30.5C47.6 65.7 43.4 64 39 64H27V38Z" fill="url(#bookGold)"/>
  <path d="M69 38c0-3-2.4-5.4-5.4-5.4H51c-3 0-5.5 2.4-5.5 5.4v30.5C48.4 65.7 52.6 64 57 64h12V38Z" fill="#00B4D8"/>
  <path d="M48 31v38" stroke="#F7F8F3" stroke-width="4" stroke-linecap="round"/>
  <path d="M31 42h10M31 50h10M55 42h10M55 50h10" stroke="#0B1F24" stroke-width="3" stroke-linecap="round" opacity=".55"/>
  <path d="M48 18l2.6 7.1 7.4 1.2-5.8 4.8 1.8 7.3-6-3.9-6 3.9 1.8-7.3-5.8-4.8 7.4-1.2L48 18Z" fill="#F7F8F3"/>
  <path d="M26 72c8 0 15 1.6 22 6 7-4.4 14-6 22-6" stroke="#F7F8F3" stroke-width="5" stroke-linecap="round"/>
</svg>
